<?xml version="1.0"?>
<svg xmlns="http://www.w3.org/2000/svg" viewBox="0 0 512 512" width="512" height="512"><g id="Outline"><path d="M270.891,200H256v16h14.891c13.9,0,27.092-3.228,37.14-9.09l-8.062-13.82C292.441,197.481,281.842,200,270.891,200Z"/><circle cx="244" cy="156" r="12"/><circle cx="316" cy="156" r="12"/><path d="M160,336H112a8,8,0,0,0-8,8v32a8,8,0,0,0,8,8h48a8,8,0,0,0,8-8V344A8,8,0,0,0,160,336Zm-8,32H120V352h32Z"/><path d="M56,208a16.007,16.007,0,0,0,15.952-15.049L78.777,152h31.779l-4.036,24.218a15.992,15.992,0,1,0,13.432,16.733l7.939-47.636A8,8,0,0,0,120,136H72a8,8,0,0,0-7.891,6.685L58.52,176.219A15.991,15.991,0,1,0,56,208Z"/><path d="M478.362,393.114,432,230.879V144a8,8,0,0,0-1.15-4.133l-24.911-41.28q-.129-.215-.272-.421a23.843,23.843,0,0,0-18.7-10.112A104,104,0,0,0,288,16H272a104,104,0,0,0-103.775,97.3A24.036,24.036,0,0,0,152,136v40a24.027,24.027,0,0,0,24,24v60a12,12,0,0,1-24,0V244a28,28,0,0,0-56,0v60a24.028,24.028,0,0,0-24,24v66.983L67.269,400H40a8,8,0,0,0-8,8v80a8,8,0,0,0,8,8H176a24.028,24.028,0,0,0,24-24V328a24.039,24.039,0,0,0-15.709-22.522,55.931,55.931,0,0,1,15.919-4.442l16.439-2.055A62.093,62.093,0,0,0,278,352h4a62.093,62.093,0,0,0,61.351-53.019l22.533,2.816a39.517,39.517,0,0,1,12.824,3.928l13.319,90.989-2.37-2.371A8,8,0,0,0,376,400v96h16V419.313l7.21,7.211a43.127,43.127,0,0,0,75.5-1.63l.751-1.47A41.109,41.109,0,0,0,478.362,393.114ZM373.909,184H360V128h8.406l13.462,25.036Zm-2.234-91.236A22.831,22.831,0,0,0,362.4,112h-2.859A71.762,71.762,0,0,0,340.5,70.81l11.352-11.352A86.334,86.334,0,0,1,371.675,92.764ZM280,256a64.072,64.072,0,0,1-64-64V136h12.775a113.931,113.931,0,0,0,81.355-33.88A68.51,68.51,0,0,0,344,133.494V192A64.072,64.072,0,0,1,280,256ZM272,64h16a56.064,56.064,0,0,1,55.8,51.447A52.7,52.7,0,0,1,323.842,93.8l-4.687-9.373a8,8,0,0,0-13.4-1.42,98.043,98.043,0,0,1-56.185,34.8c4.182-12.572,13.477-23.47,26.4-30.855l-7.938-13.892c-17.308,9.89-29.568,24.988-34.52,42.514l-1.233,4.364c-1.165.04-2.332.068-3.5.068H216A56.064,56.064,0,0,1,272,64Zm16-32a87.554,87.554,0,0,1,51.823,16.863L328.312,60.375A71.591,71.591,0,0,0,288,48H272a71.586,71.586,0,0,0-40.311,12.373L220.175,48.861A87.556,87.556,0,0,1,272,32ZM208.145,59.459,219.5,70.81A71.762,71.762,0,0,0,200.455,112H184.372A87.971,87.971,0,0,1,208.145,59.459ZM168,176V136a8.009,8.009,0,0,1,8-8h24v56H176A8.009,8.009,0,0,1,168,176ZM48,480V416H96a8.009,8.009,0,0,1,8,8v48a8.009,8.009,0,0,1-8,8Zm136-8a8.009,8.009,0,0,1-8,8H118.624A23.889,23.889,0,0,0,120,472V459.7a32,32,0,1,0-5.694-51.192A23.953,23.953,0,0,0,96,400H88V328a8.009,8.009,0,0,1,8-8h80a8.009,8.009,0,0,1,8,8Zm-48-56a16,16,0,1,1-16,16A16.019,16.019,0,0,1,136,416Zm62.226-130.841a71.62,71.62,0,0,0-39.633,18.288l.506.553H112V244a12,12,0,0,1,24,0v16a28,28,0,0,0,56,0V200h8.4A80,80,0,0,0,232,255.956v24.983ZM282,336h-4a46.073,46.073,0,0,1-45.469-39l8.462-1.059A8,8,0,0,0,248,288V265.3a79.768,79.768,0,0,0,64,0V288a8,8,0,0,0,7.009,7.938l8.46,1.056A46.073,46.073,0,0,1,282,336Zm85.869-50.079L328,280.937V255.956A80,80,0,0,0,359.6,200H370.13a128.076,128.076,0,0,0-.776,41.835l6.7,45.771A55.024,55.024,0,0,0,367.869,285.921Zm93.344,130.216-.752,1.47A26.642,26.642,0,0,1,436.541,432c-13.29,0-24.393-9.254-26.387-21.919L385.186,239.518a112.43,112.43,0,0,1,2.354-44.278l10.6-41.248a8,8,0,0,0-.7-5.781L379.1,114.11a6.744,6.744,0,0,1,2.567-8.841,8.125,8.125,0,0,1,10.724,1.84L416,146.227V232a8.008,8.008,0,0,0,.308,2.2L462.984,397.53l.011.038A25.172,25.172,0,0,1,461.213,416.137Z"/></g></svg>
