<svg width="35" height="35" viewBox="0 0 35 35" fill="none" xmlns="http://www.w3.org/2000/svg">
<path d="M2.91667 8.74279C2.91667 7.94071 3.56709 7.29175 4.36771 7.29175H16.049C16.4338 7.29175 16.8029 7.44462 17.075 7.71675C17.3471 7.98887 17.5 8.35795 17.5 8.74279C17.5 9.12763 17.3471 9.49671 17.075 9.76883C16.8029 10.041 16.4338 10.1938 16.049 10.1938H4.36771C3.98287 10.1938 3.6138 10.041 3.34167 9.76883C3.06955 9.49671 2.91667 9.12763 2.91667 8.74279Z" fill="black"/>
<path d="M2.91667 17.5001C2.91667 16.698 3.56709 16.0491 4.36771 16.0491H30.6323C31.0171 16.0491 31.3862 16.2019 31.6583 16.4741C31.9305 16.7462 32.0833 17.1153 32.0833 17.5001C32.0833 17.885 31.9305 18.254 31.6583 18.5262C31.3862 18.7983 31.0171 18.9512 30.6323 18.9512H4.36771C3.98287 18.9512 3.6138 18.7983 3.34167 18.5262C3.06955 18.254 2.91667 17.885 2.91667 17.5001Z" fill="black"/>
<path d="M4.36771 24.8064C3.98287 24.8064 3.6138 24.9593 3.34167 25.2314C3.06955 25.5035 2.91667 25.8726 2.91667 26.2574C2.91667 26.6423 3.06955 27.0114 3.34167 27.2835C3.6138 27.5556 3.98287 27.7085 4.36771 27.7085H21.8823C22.2671 27.7085 22.6362 27.5556 22.9083 27.2835C23.1805 27.0114 23.3333 26.6423 23.3333 26.2574C23.3333 25.8726 23.1805 25.5035 22.9083 25.2314C22.6362 24.9593 22.2671 24.8064 21.8823 24.8064H4.36771Z" fill="black"/>
</svg>
