<svg width="20" height="20" viewBox="0 0 20 20" fill="none" xmlns="http://www.w3.org/2000/svg">
<path fill-rule="evenodd" clip-rule="evenodd" d="M15.1534 13.6581C16.4727 11.9566 17.0944 9.81627 16.8922 7.67244C16.69 5.52862 15.6789 3.5424 14.0648 2.11786C12.4506 0.693311 10.3546 -0.0625465 8.20313 0.00405526C6.05167 0.070657 4.00638 0.954715 2.48335 2.47638C0.959004 3.99909 0.0724087 6.04599 0.00424256 8.19994C-0.0639235 10.3539 0.69147 12.4528 2.11649 14.0689C3.5415 15.6851 5.52889 16.6968 7.67366 16.8979C9.81843 17.0991 11.9592 16.4745 13.6596 15.1515L13.7051 15.1991L18.1929 19.6898C18.2912 19.7882 18.4079 19.8662 18.5364 19.9194C18.6648 19.9726 18.8024 20 18.9415 20C19.0805 20 19.2181 19.9726 19.3465 19.9194C19.475 19.8662 19.5917 19.7882 19.69 19.6898C19.7883 19.5915 19.8662 19.4748 19.9194 19.3463C19.9726 19.2178 20 19.0801 20 18.941C20 18.802 19.9726 18.6643 19.9194 18.5358C19.8662 18.4073 19.7883 18.2906 19.69 18.1922L15.201 13.7026C15.1856 13.6873 15.1697 13.6725 15.1534 13.6581ZM12.9571 3.97398C13.5544 4.56189 14.0295 5.26229 14.3549 6.03479C14.6803 6.80728 14.8496 7.63659 14.853 8.47486C14.8564 9.31313 14.6939 10.1438 14.3748 10.9189C14.0557 11.694 13.5863 12.3983 12.9938 12.991C12.4013 13.5838 11.6973 14.0533 10.9225 14.3725C10.1477 14.6918 9.31739 14.8543 8.47945 14.8509C7.64151 14.8475 6.81254 14.6782 6.04035 14.3526C5.26816 14.0271 4.56804 13.5519 3.98036 12.9543C2.80594 11.7601 2.15079 10.1501 2.15761 8.47486C2.16443 6.79964 2.83267 5.19497 4.01677 4.0104C5.20087 2.82583 6.80489 2.15732 8.47945 2.1505C10.154 2.14368 11.7634 2.7991 12.9571 3.97398Z" fill="black"/>
</svg>
